<svg width="247" height="247" fill="none" xmlns="http://www.w3.org/2000/svg"><path d="m231.399 79.129-3.127.133a2.404 2.404 0 0 1-1.783-4.105l6.531-6.53-54.646-54.647-6.531 6.53a2.402 2.402 0 0 1-4.095-1.797l.123-3.137A20.74 20.74 0 0 0 161.785 0L0 161.775a20.854 20.854 0 0 0 15.576 6.081l3.142-.118a2.397 2.397 0 0 1 2.292 1.432 2.402 2.402 0 0 1-.494 2.658l-6.536 6.546 54.646 54.646 6.541-6.546a2.404 2.404 0 0 1 4.095 1.798l-.133 3.127A20.886 20.886 0 0 0 85.215 247L247 85.225a20.83 20.83 0 0 0-15.601-6.096Zm-34.985-9.149a6.988 6.988 0 0 1-5.784 3.102 6.916 6.916 0 0 1-4.901-2.03l-2.089-2.09-17.533 17.532 1.813 1.813a7.188 7.188 0 0 1 0 10.32 6.915 6.915 0 0 1-9.524-.252l-2.089-2.09-17.868 17.869a17.652 17.652 0 0 1-12.974 26.889 17.648 17.648 0 0 1-11.351-2.57l-17.843 17.843 1.813 1.808a7.19 7.19 0 0 1 1.62 7.978 7.197 7.197 0 0 1-1.62 2.362 6.919 6.919 0 0 1-9.514-.267l-2.09-2.09-17.542 17.542 1.906 1.907a7.116 7.116 0 0 1 1.078 8.892 7.001 7.001 0 0 1-5.785 3.103 6.94 6.94 0 0 1-2.653-.527 6.9 6.9 0 0 1-2.248-1.504l-4.89-4.89-4.708-4.708a7.114 7.114 0 0 1-1.077-8.892 6.913 6.913 0 0 1 8.113-2.709 6.924 6.924 0 0 1 2.572 1.637l2.09 2.089 17.532-17.532-1.813-1.813a7.214 7.214 0 0 1 0-10.344 6.96 6.96 0 0 1 4.624-1.754 6.867 6.867 0 0 1 4.9 2.031l2.09 2.089 17.868-17.868a17.652 17.652 0 0 1 12.979-26.935 17.65 17.65 0 0 1 11.37 2.606l17.843-17.843-1.813-1.813a7.2 7.2 0 0 1-1.629-8.005 7.195 7.195 0 0 1 1.629-2.37 7.012 7.012 0 0 1 4.624-1.748 6.923 6.923 0 0 1 4.891 2.04l2.089 2.09 17.542-17.542-1.907-1.907a7.115 7.115 0 0 1-1.076-8.892 6.91 6.91 0 0 1 8.113-2.709 6.921 6.921 0 0 1 2.572 1.637l4.89 4.89 4.708 4.708a7.114 7.114 0 0 1 1.052 8.917Z" fill="#171717"/><g opacity=".13" clip-path="url(#a)" fill="#fff"><path d="M188.676 86.091c-4.174 6.088-1.295 14.73 5.716 17.127 3.264 1.121 6.157.879 9.221-.749 1.488-.791 3.163-2.426 4.022-3.923.743-1.281 1.418-3.352 1.521-4.69.18-2.254-.411-4.792-1.606-6.805-.784-1.33-2.499-3.083-3.749-3.866-3.949-2.43-8.764-2.338-12.467.249-1.182.823-1.863 1.505-2.658 2.657Zm4.395-1.504c2.348-1.372 5.162-1.634 7.793-.717 1.592.56 2.724 1.322 3.931 2.646 1.687 1.881 2.387 3.672 2.428 6.263.026 1.39-.047 1.92-.39 2.921-1 2.914-2.928 4.842-5.841 5.842-1.001.343-1.542.405-2.931.399-1.379-.016-1.941-.112-2.94-.468-1.563-.55-2.605-1.202-3.701-2.299-4.335-4.315-3.514-11.575 1.651-14.587Z"/><path d="m192.313 93.836 1.954 1.954.242-.362c.135-.195.397-.517.573-.693l.321-.321-1.197-1.255-1.186-1.245 1.459-1.52c1.295-1.334 1.539-1.538 2.097-1.758.51-.19.767-.188 1.261.015.634.244 1.053.741 1.119 1.293.021.158.177.022.682-.583.37-.429.66-.839.669-.908-.01-.069-.27-.387-.589-.706-.748-.747-1.658-1.093-2.75-1.037-1.349.073-1.828.393-4.379 2.943l-2.229 2.23 1.953 1.953Zm5.712-.031a537.919 537.919 0 0 0-2.806 3.424l-.262.322.373-.094c.196-.057.646-.347 1.007-.648l.644-.544 2.945.024c3.418.01 3.899-.112 5.166-1.26.799-.719.809-.729.445-.723-.217.017-1.929.155-3.828.32-1.899.165-3.474.225-3.485.136-.062-.257.533-.713 1.034-.795.482-.064.521-.103 1.434-1.234.621-.8.93-1.29.947-1.526.006-.325-.19-1.086-.319-1.215-.08-.08-.605.525-3.295 3.813Zm-.875 1.752c.079.08.081.218.003.296a.215.215 0 0 1-.296-.004.215.215 0 0 1-.003-.295.215.215 0 0 1 .296.003Zm-.489 25.604 2.143 2.143.535-.536.535-.535-.647-.648-.648-.648.428-.428c.438-.439.438-.439 1.378-.142l.949.307.604-.545.595-.535-1.019-.317c-.958-.277-1.018-.317-.982-.612.028-.167.065-.344.104-.383.272-.292-1.503-2.165-2.204-2.34-.543-.135-1.022.185-2.512 1.674l-1.402 1.402 2.143 2.143Zm1.286-3.738c.138.002.446.212.695.461.249.249.459.557.461.695.001.138-.27.509-.659.899l-.662.662-.698-.698-.698-.698.662-.662c.39-.389.761-.66.899-.659Zm5.528-3.077 2.143 2.142 1.655-1.655 1.655-1.655-.398-.399-.399-.398-1.12 1.119-1.119 1.12-.498-.498-.499-.499.876-.876.877-.876-.399-.399-.399-.398-.876.876-.876.876-.449-.448-.448-.449 1.12-1.119 1.119-1.12-.398-.399-.399-.398-1.655 1.655-1.655 1.655 2.142 2.143Zm6.32-6.339 2.152 2.153 1.402-1.402c1.558-1.558 1.858-2.037 1.644-2.66-.276-.86-1.398-1.592-1.976-1.293-.254.135-.264.125-.32-.418-.067-.729-.715-1.397-1.435-1.455l-.513-.045-1.548 1.489-1.549 1.489 2.143 2.142Zm1.199-3.551c.365-.006.474.084.607.49.072.247-.025.403-.541.919l-.633.633-.448-.448-.449-.449.574-.574c.4-.399.683-.583.89-.571Zm1.635 1.634c.264-.125.422-.083.631.126.429.429.353.684-.377 1.414l-.662.662-.429-.429c-.239-.239-.439-.497-.43-.566-.002-.197.875-1.034 1.267-1.207Zm3.99-4.888 2.143 2.143 1.655-1.655 1.655-1.655-.399-.4-.388-.388-1.169 1.109-1.179 1.119-.449-.448-.448-.449.875-.935.866-.925-.388-.39-.389-.388-.926.866-.935.876-.399-.4-.398-.398 1.119-1.179 1.109-1.168-.389-.39-.399-.398-1.655 1.655-1.655 1.655 2.143 2.143Zm6.329-6.328 2.143 2.143 1.606-1.607 1.607-1.606-.399-.399-.389-.389-1.12 1.061-1.13 1.07-1.753-1.695-1.734-1.694-.487.486-.487.487 2.143 2.143Z"/></g><defs><clipPath id="a"><path fill="#fff" transform="rotate(-45 207.607 -161.494)" d="M0 0h41.719v33.826H0z"/></clipPath></defs></svg>