<svg width="594" height="720" fill="none" xmlns="http://www.w3.org/2000/svg"><path d="M277.481 385.156c-126.056 12.01-240.22 23.221-253.697 24.822L0 412.38l19.027 11.211c10.307 5.605 40.433 12.011 67.388 14.413l48.361 4.003 118.921 119.309c138.74 137.726 163.317 152.139 261.625 156.943 61.838 3.203 62.631 3.203 47.568-11.21-9.514-8.007-84.83-71.265-168.867-140.928-84.037-69.664-150.633-130.519-147.461-134.523 7.928-12.812 50.739-7.207 74.523 9.609 22.198 16.815 25.37 16.815 108.614 8.007 57.874-7.207 90.379-14.413 100.686-23.221 13.477-12.812 36.469-51.247 36.469-61.656 0-6.406-45.983-3.203-289.373 20.819Zm-107.028 35.232c0 6.405-5.55 12.011-11.893 12.011-6.342 0-11.892-5.606-11.892-12.011 0-6.406 5.55-12.011 11.892-12.011 6.343 0 11.893 5.605 11.893 12.011ZM43.599 156.944v156.943l24.577-4.805c13.477-2.402 37.261-4.804 51.532-4.804h26.162l2.379-98.49 2.378-97.689 121.299-2.402c107.028-1.602 125.263 0 156.975 13.612 28.54 12.812 38.847 23.221 50.739 51.247 15.856 35.232 12.685 72.066-7.135 96.888-5.55 7.207 6.342 8.008 51.532 4.004 32.505-2.402 61.046-7.207 64.217-9.609 2.378-3.203 4.757-26.424 4.757-52.047 0-60.055-22.992-110.501-69.767-152.139C465.37 6.406 432.865 0 225.15 0H43.599v156.944Z" fill="#171717"/></svg>