<svg width="563" height="358" fill="none" xmlns="http://www.w3.org/2000/svg"><path d="M273.821 24.507C149.551 36.457 37.004 47.612 23.717 49.205L.27 51.595 19.009 62.75c10.15 5.577 39.837 11.95 66.403 14.341l47.664 3.984 117.049 118.713c136.56 137.037 160.764 151.379 257.659 156.159 60.95 3.187 61.731 3.187 46.904-11.154-9.366-7.968-83.515-70.909-166.251-140.225-82.735-69.316-148.291-129.867-145.16-133.85 7.833-12.749 50.024-7.172 73.444 9.56 21.857 16.731 24.983 16.731 107.049 7.967 57.057-7.17 89.108-14.341 99.279-23.105 13.304-12.748 36.021-50.99 36.036-61.348.009-6.374-45.321-3.187-285.264 20.715ZM168.273 59.563c-.009 6.374-5.488 11.95-11.739 11.95-6.252 0-11.714-5.576-11.705-11.95.009-6.374 5.487-11.951 11.739-11.951 6.252 0 11.714 5.577 11.705 11.95Z" fill="#fff"/></svg>