<svg width="287" height="264" viewBox="0 0 287 264" fill="none" xmlns="http://www.w3.org/2000/svg">
<path d="M61.2367 134.164C33.2842 192.947 8.11651 246.273 5.26895 252.643L0.0553437 263.77L10.0652 258.378C15.2796 255.332 26.0847 243.762 34.2721 232.521L48.8251 212.27L133.283 191.728C231.165 167.369 244.065 160.386 272.166 118.33C289.922 91.924 290.132 91.5745 279.744 94.3635C273.671 96.4177 225.652 112.716 172.482 131.148C119.311 149.579 74.6633 162.675 73.7207 160.207C70.118 153.288 83.9173 135.912 97.6758 129.92C111.016 124.627 111.853 123.229 129.923 84.1763C142.004 56.7357 147.385 40.4797 146.19 33.582C144.053 24.2164 133.036 3.80874 128.407 1.02683C125.559 -0.685109 114.838 20.4428 61.2367 134.164ZM48.6347 190.764C51.483 192.476 52.5095 196.421 50.8344 199.217C49.1592 202.013 45.2012 202.962 42.353 201.25C39.5046 199.538 38.4781 195.593 40.1532 192.797C41.8284 190.001 45.7864 189.052 48.6347 190.764Z" fill="#2F2F2F"/>
</svg>
