<svg width="36" height="36" viewBox="0 0 36 36" fill="none" xmlns="http://www.w3.org/2000/svg">
<path fill-rule="evenodd" clip-rule="evenodd" d="M1.12136 15.9701C-0.0502173 17.1417 -0.0502175 19.0412 1.12136 20.2127L15.9706 35.062C17.1422 36.2336 19.0417 36.2336 20.2132 35.062L35.0625 20.2127C36.2341 19.0412 36.2341 17.1417 35.0625 15.9701L20.2132 1.12087C19.0417 -0.0507057 17.1422 -0.0507057 15.9706 1.12087L1.12136 15.9701ZM18 29.0455C24.0752 29.0455 29 24.1207 29 18.0455C29 11.9704 24.0752 7.04553 18 7.04553C11.9249 7.04553 7.00003 11.9704 7.00003 18.0455C7.00003 24.1207 11.9249 29.0455 18 29.0455Z" fill="white"/>
<path fill-rule="evenodd" clip-rule="evenodd" d="M14 11.0225C12.3431 11.0225 11 12.3656 11 14.0225V22.0225C11 23.6793 12.3431 25.0225 14 25.0225H22C23.6569 25.0225 25 23.6793 25 22.0225V14.0225C25 12.3656 23.6569 11.0225 22 11.0225H14ZM18 23.0225C20.7614 23.0225 23 20.7839 23 18.0225C23 15.261 20.7614 13.0225 18 13.0225C15.2386 13.0225 13 15.261 13 18.0225C13 20.7839 15.2386 23.0225 18 23.0225Z" fill="white"/>
<path d="M16.7071 18.753C16.3166 18.3625 16.3166 17.7293 16.7071 17.3388L17.4141 16.6316C17.8047 16.2411 18.4378 16.2411 18.8283 16.6316L19.5354 17.3388C19.9259 17.7293 19.9259 18.3625 19.5354 18.753L18.8283 19.4602C18.4378 19.8507 17.8047 19.8507 17.4141 19.4602L16.7071 18.753Z" fill="white"/>
</svg>
