<svg width="100" height="80" viewBox="0 0 100 80" fill="none" xmlns="http://www.w3.org/2000/svg">
<g clip-path="url(#clip0_1106_3015)">
<path d="M45.9077 0.500256C28.515 3.70026 18.746 22.9669 26.5678 38.7003C30.1981 46.0336 35.5117 50.4669 43.4655 52.8669C47.3269 54.0336 52.9374 54.1003 56.9308 53.0336C60.3632 52.1336 65.0166 49.8003 67.4589 47.7336C71.5843 44.2669 74.8846 39.0336 76.2708 33.6669C77.1948 30.1336 77.2609 24.3336 76.4688 20.9336C73.8945 10.2669 65.5777 2.36692 54.9176 0.500256C51.5183 -0.0997444 49.208 -0.0997444 45.9077 0.500256ZM55.9077 5.33359C62.2113 6.96692 67.4259 11.2336 70.3302 17.1669C72.0793 20.7669 72.7064 23.9336 72.5084 28.1669C72.1783 34.1336 70.3302 38.3003 66.0067 42.7003C63.6965 45.0669 62.6734 45.8336 60.3962 46.9336C53.7625 50.1336 47.2279 50.1336 40.5942 46.9336C38.317 45.8336 37.2939 45.0336 34.9506 42.7003C32.6404 40.3669 31.8483 39.2669 30.7592 37.0003C29.043 33.4669 28.383 30.6336 28.383 26.9669C28.35 12.5003 42.0463 1.73359 55.9077 5.33359Z" fill="white"/>
<path d="M38.9438 19.5336V26.0669L39.967 25.8669C40.528 25.7669 41.5181 25.6669 42.1122 25.6669H43.2013L43.3003 21.5669L43.3993 17.5002L48.4488 17.4002C52.9042 17.3336 53.6633 17.4002 54.9835 17.9669C56.1716 18.5002 56.6006 18.9336 57.0957 20.1002C57.7557 21.5669 57.6237 23.1002 56.7986 24.1336C56.5676 24.4336 57.0627 24.4669 58.9439 24.3002C60.297 24.2002 61.4851 24.0002 61.6171 23.9002C61.7161 23.7669 61.8151 22.8002 61.8151 21.7336C61.8151 19.2336 60.858 17.1336 58.9108 15.4002C56.5016 13.2669 55.1485 13.0002 46.5016 13.0002H38.9438V19.5336Z" fill="white"/>
<path d="M48.6801 29.0338C43.4325 29.5338 38.6801 30.0004 38.119 30.0671L37.1289 30.1671L37.921 30.6338C38.35 30.8671 39.6042 31.1338 40.7263 31.2338L42.7395 31.4004L47.69 36.3671C53.4655 42.1004 54.4886 42.7004 58.5811 42.9004C61.1553 43.0338 61.1883 43.0338 60.5613 42.4338C60.1652 42.1004 57.0299 39.4671 53.5315 36.5671C50.0332 33.6671 47.2609 31.1338 47.3929 30.9671C47.723 30.4338 49.5051 30.6671 50.4952 31.3671C51.4193 32.0671 51.5514 32.0671 55.0167 31.7004C57.4259 31.4004 58.7791 31.1004 59.2081 30.7338C59.7692 30.2004 60.7263 28.6004 60.7263 28.1671C60.7263 27.9004 58.8121 28.0338 48.6801 29.0338ZM44.2246 30.5004C44.2246 30.7671 43.9936 31.0004 43.7296 31.0004C43.4655 31.0004 43.2345 30.7671 43.2345 30.5004C43.2345 30.2338 43.4655 30.0004 43.7296 30.0004C43.9936 30.0004 44.2246 30.2338 44.2246 30.5004Z" fill="white"/>
<path d="M0 72.5002V79.6669H1.81518H3.63036V77.5002V75.3335H5.08251C6.56766 75.3335 6.56766 75.3335 7.65677 77.4002L8.74587 79.5002L10.6931 79.6002L12.6073 79.7002L11.4191 77.4669C10.264 75.4002 10.231 75.2335 10.7921 74.8002C11.1221 74.5669 11.4851 74.3335 11.6172 74.3335C12.5743 74.3002 12.7393 68.2002 11.8482 66.7335C11.1551 65.6002 9.80198 65.3335 4.75248 65.3335H0V72.5002ZM8.51485 68.4002C8.74588 68.6335 8.91089 69.5002 8.91089 70.3335C8.91089 71.1669 8.74588 72.0335 8.51485 72.2669C8.28383 72.5002 7.19472 72.6669 5.87459 72.6669H3.63036V70.3335V68.0002H5.87459C7.19472 68.0002 8.28383 68.1669 8.51485 68.4002Z" fill="white"/>
<path d="M23.1025 72.5003V79.667H28.7131H34.3237V78.3337V77.0003H30.5283H26.7329V75.3337V73.667H29.7032H32.6735V72.3337V71.0003H29.7032H26.7329V69.5003V68.0003H30.5283H34.3237V66.667V65.3337H28.7131H23.1025V72.5003Z" fill="white"/>
<path d="M44.5547 72.467V79.667H49.3072C54.5877 79.667 55.9078 79.367 56.6009 77.967C57.591 76.067 56.9309 72.967 55.4458 72.5003C54.7857 72.3003 54.7857 72.267 55.6108 71.267C56.7329 69.9337 56.7659 67.7337 55.6438 66.4337L54.8517 65.5003L49.7032 65.4003L44.5547 65.3003V72.467ZM52.6075 68.5337C53.2346 69.1337 53.2676 69.467 52.8055 70.367C52.5085 70.9003 52.0794 71.0003 50.3303 71.0003H48.1851V69.5003V68.0003H50.1322C51.4854 68.0003 52.2775 68.167 52.6075 68.5337ZM52.6075 74.0003C53.2676 74.2337 53.4656 74.567 53.4656 75.267C53.4656 76.7003 52.9045 77.0003 50.4293 77.0003H48.1851V75.567C48.1851 74.767 48.2841 74.0003 48.4161 73.9003C48.7461 73.567 51.6504 73.6337 52.6075 74.0003Z" fill="white"/>
<path d="M67.6567 72.5003V79.667H73.2673H78.8779V78.3337V77.0337L75.0165 76.9337L71.1221 76.8337V75.3337V73.8337L74.1914 73.7337L77.2277 73.6337V72.3337V71.0337L74.1914 70.9337L71.1221 70.8337V69.5003V68.167L75.0165 68.067L78.8779 67.967V66.667V65.3337H73.2673H67.6567V72.5003Z" fill="white"/>
<path d="M89.1089 72.5003V79.667H94.5544H100V78.3337V77.0337L96.3036 76.9337L92.5742 76.8337L92.4752 71.067L92.4092 65.3337H90.7591H89.1089V72.5003Z" fill="white"/>
</g>
<defs>
<clipPath id="clip0_1106_3015">
<rect width="100" height="80" fill="white"/>
</clipPath>
</defs>
</svg>
