<svg width="63" height="62" viewBox="0 0 63 62" fill="none" xmlns="http://www.w3.org/2000/svg">
<path d="M29.4829 4.52087C38.6279 4.52087 49.0387 9.89421 51.7513 21.8292C54.7738 35.1592 46.6104 46.4225 39.2221 53.5267C36.5096 56.1617 33.0563 59 29.543 59C26.0296 59 22.4562 56.1617 19.7179 53.5267C12.3296 46.4225 4.16625 35.1334 7.18875 21.8034C9.90125 9.86837 20.3379 4.52087 29.4571 4.52087H29.4829Z" fill="black"/>
<path d="M28.3406 27.0012C25.8151 27.2451 23.5278 27.4727 23.2578 27.5052L22.7812 27.554L23.1625 27.7816C23.369 27.8955 23.9725 28.0255 24.5126 28.0743L25.4815 28.1556L27.8641 30.5782C30.6437 33.3748 31.1361 33.6675 33.1057 33.7651C34.3447 33.8301 34.3605 33.8301 34.0587 33.5374C33.8681 33.3748 32.3592 32.0903 30.6755 30.6758C28.9918 29.2612 27.6576 28.0255 27.7211 27.9442C27.8799 27.6841 28.7377 27.7979 29.2142 28.1393C29.6589 28.4808 29.7225 28.4808 31.3903 28.3019C32.5498 28.1556 33.201 28.0093 33.4075 27.8304C33.6775 27.5703 34.1382 26.7898 34.1382 26.5784C34.1382 26.4484 33.2169 26.5134 28.3406 27.0012ZM26.1963 27.7166C26.1963 27.8467 26.0851 27.9605 25.958 27.9605C25.8309 27.9605 25.7198 27.8467 25.7198 27.7166C25.7198 27.5865 25.8309 27.4727 25.958 27.4727C26.0851 27.4727 26.1963 27.5865 26.1963 27.7166Z" fill="white"/>
<path d="M23.8203 22.36V25.48L24.3321 25.3845C24.6127 25.3367 25.1079 25.289 25.4051 25.289H25.9498L25.9994 23.331L26.0489 21.389L28.5746 21.3412C30.8032 21.3094 31.1829 21.3412 31.8432 21.6118C32.4375 21.8665 32.6521 22.0735 32.8997 22.6306C33.2298 23.331 33.1638 24.0632 32.7511 24.5567C32.6356 24.7 32.8832 24.7159 33.8241 24.6363C34.5009 24.5886 35.0952 24.493 35.1613 24.4453C35.2108 24.3816 35.2603 23.92 35.2603 23.4106C35.2603 22.2167 34.7816 21.2139 33.8076 20.3861C32.6025 19.3673 31.9257 19.24 27.6006 19.24H23.8203V22.36Z" fill="white"/>
<path d="M27.3332 13.2177C18.8297 14.7659 14.0535 24.0874 17.8776 31.6994C19.6526 35.2473 22.2504 37.3922 26.1391 38.5534C28.027 39.1178 30.7701 39.1501 32.7225 38.634C34.4006 38.1986 36.6758 37.0697 37.8698 36.0698C39.8868 34.3926 41.5004 31.8606 42.1781 29.2642C42.6299 27.5547 42.6621 24.7486 42.2749 23.1036C41.0163 17.943 36.9501 14.1208 31.7382 13.2177C30.0763 12.9274 28.9468 12.9274 27.3332 13.2177ZM32.2223 15.5561C35.3042 16.3464 37.8537 18.4106 39.2736 21.2813C40.1288 23.023 40.4354 24.5551 40.3386 26.6032C40.1772 29.49 39.2736 31.5058 37.1598 33.6346C36.0303 34.7796 35.5301 35.1506 34.4168 35.6828C31.1735 37.231 27.9786 37.231 24.7353 35.6828C23.622 35.1506 23.1218 34.7635 21.9761 33.6346C20.8466 32.5057 20.4594 31.9735 19.9269 30.8769C19.0878 29.1674 18.7651 27.7966 18.7651 26.0226C18.749 19.0235 25.4453 13.8144 32.2223 15.5561Z" fill="white"/>
</svg>
