<svg xmlns="http://www.w3.org/2000/svg" width="64" height="62" viewBox="0 0 64 62" fill="none">
  <path d="M30.4399 4.521C39.5849 4.521 49.9958 9.89433 52.7083 21.8293C55.7308 35.1593 47.5674 46.4227 40.1791 53.5268C37.4666 56.1618 34.0133 59.0002 30.5 59.0002C26.9867 59.0002 23.4133 56.1618 20.6749 53.5268C13.2866 46.4227 5.12328 35.1335 8.14578 21.8035C10.8583 9.86849 21.2949 4.521 30.4141 4.521H30.4399Z" fill="#DD921E"/>
  <path d="M29.2996 27.0009C26.774 27.2448 24.4868 27.4725 24.2167 27.505L23.7402 27.5538L24.1214 27.7814C24.3279 27.8952 24.9315 28.0253 25.4716 28.0741L26.4405 28.1554L28.823 30.578C31.6027 33.3746 32.0951 33.6673 34.0647 33.7648C35.3036 33.8298 35.3195 33.8298 35.0177 33.5372C34.8271 33.3746 33.3182 32.0901 31.6345 30.6755C29.9508 29.261 28.6166 28.0253 28.6801 27.944C28.8389 27.6838 29.6967 27.7977 30.1732 28.1391C30.6179 28.4805 30.6815 28.4805 32.3493 28.3017C33.5088 28.1554 34.16 28.009 34.3665 27.8302C34.6365 27.57 35.0971 26.7896 35.0971 26.5782C35.0971 26.4481 34.1759 26.5132 29.2996 27.0009ZM27.1553 27.7164C27.1553 27.8464 27.0441 27.9602 26.917 27.9602C26.7899 27.9602 26.6787 27.8464 26.6787 27.7164C26.6787 27.5863 26.7899 27.4725 26.917 27.4725C27.0441 27.4725 27.1553 27.5863 27.1553 27.7164Z" fill="white"/>
  <path d="M24.7793 22.36V25.48L25.291 25.3845C25.5717 25.3367 26.0669 25.289 26.3641 25.289H26.9088L26.9583 23.331L27.0079 21.389L29.5336 21.3412C31.7622 21.3094 32.1418 21.3412 32.8022 21.6118C33.3964 21.8665 33.611 22.0735 33.8587 22.6306C34.1888 23.331 34.1228 24.0632 33.7101 24.5567C33.5945 24.7 33.8422 24.7159 34.7831 24.6363C35.4599 24.5886 36.0542 24.493 36.1202 24.4453C36.1698 24.3816 36.2193 23.92 36.2193 23.4106C36.2193 22.2167 35.7406 21.2139 34.7666 20.3861C33.5615 19.3673 32.8847 19.24 28.5596 19.24H24.7793V22.36Z" fill="white"/>
  <path d="M28.2902 13.2177C19.7867 14.7659 15.0105 24.0874 18.8347 31.6994C20.6096 35.2473 23.2075 37.3922 27.0962 38.5534C28.9841 39.1178 31.7271 39.1501 33.6795 38.634C35.3577 38.1986 37.6328 37.0697 38.8268 36.0698C40.8438 34.3926 42.4574 31.8606 43.1351 29.2642C43.5869 27.5547 43.6192 24.7486 43.2319 23.1036C41.9733 17.943 37.9071 14.1208 32.6953 13.2177C31.0333 12.9274 29.9038 12.9274 28.2902 13.2177ZM33.1793 15.5561C36.2613 16.3464 38.8107 18.4106 40.2307 21.2813C41.0858 23.023 41.3924 24.5551 41.2956 26.6032C41.1343 29.49 40.2307 31.5058 38.1169 33.6346C36.9874 34.7796 36.4872 35.1506 35.3738 35.6828C32.1305 37.231 28.9356 37.231 25.6924 35.6828C24.579 35.1506 24.0788 34.7635 22.9332 33.6346C21.8037 32.5057 21.4164 31.9735 20.8839 30.8769C20.0449 29.1674 19.7221 27.7966 19.7221 26.0226C19.706 19.0235 26.4023 13.8144 33.1793 15.5561Z" fill="white"/>
</svg>