<svg width="148" height="44" viewBox="0 0 148 44" fill="none" xmlns="http://www.w3.org/2000/svg">
<rect width="148" height="44" fill="white"/>
<path d="M113.109 22.2005V29.3672H118.555H124V28.0339V26.7339L120.304 26.6339L116.575 26.5339L116.476 20.7672L116.41 15.0339H114.76H113.109V22.2005Z" fill="black"/>
<path d="M91.6562 22.2005V29.3672H97.2668H102.877V28.0339V26.7339L99.016 26.6339L95.1216 26.5339V25.0339V23.5339L98.1909 23.4339L101.227 23.3339V22.0339V20.7339L98.1909 20.6339L95.1216 20.5339V19.2005V17.8672L99.016 17.7672L102.877 17.6672V16.3672V15.0339H97.2668H91.6562V22.2005Z" fill="black"/>
<path d="M68.5547 22.1672V29.3672H73.3072C78.5877 29.3672 79.9078 29.0672 80.6009 27.6672C81.591 25.7672 80.9309 22.6672 79.4458 22.2005C78.7857 22.0005 78.7857 21.9672 79.6108 20.9672C80.7329 19.6339 80.7659 17.4339 79.6438 16.1339L78.8517 15.2005L73.7032 15.1005L68.5547 15.0005V22.1672ZM76.6075 18.2339C77.2346 18.8339 77.2676 19.1672 76.8055 20.0672C76.5085 20.6005 76.0794 20.7005 74.3303 20.7005H72.1851V19.2005V17.7005H74.1322C75.4854 17.7005 76.2775 17.8672 76.6075 18.2339ZM76.6075 23.7005C77.2676 23.9339 77.4656 24.2672 77.4656 24.9672C77.4656 26.4005 76.9045 26.7005 74.4293 26.7005H72.1851V25.2672C72.1851 24.4672 72.2841 23.7005 72.4161 23.6005C72.7461 23.2672 75.6504 23.3339 76.6075 23.7005Z" fill="black"/>
<path d="M47.1016 22.2005V29.3672H52.7121H58.3227V28.0339V26.7005H54.5273H50.7319V25.0339V23.3672H53.7022H56.6725V22.0339V20.7005H53.7022H50.7319V19.2005V17.7005H54.5273H58.3227V16.3672V15.0339H52.7121H47.1016V22.2005Z" fill="black"/>
<path d="M24 22.2004V29.3671H25.8152H27.6304V27.2004V25.0337H29.0825C30.5677 25.0337 30.5677 25.0337 31.6568 27.1004L32.7459 29.2004L34.6931 29.3004L36.6073 29.4004L35.4191 27.1671C34.264 25.1004 34.231 24.9337 34.7921 24.5004C35.1221 24.2671 35.4851 24.0337 35.6172 24.0337C36.5743 24.0004 36.7393 17.9004 35.8482 16.4337C35.1551 15.3004 33.802 15.0337 28.7525 15.0337H24V22.2004ZM32.5149 18.1004C32.7459 18.3337 32.9109 19.2004 32.9109 20.0337C32.9109 20.8671 32.7459 21.7337 32.5149 21.9671C32.2838 22.2004 31.1947 22.3671 29.8746 22.3671H27.6304V20.0337V17.7004H29.8746C31.1947 17.7004 32.2838 17.8671 32.5149 18.1004Z" fill="black"/>
</svg>
