<svg width="287" height="264" fill="none" xmlns="http://www.w3.org/2000/svg"><path d="M61.237 134.164C33.284 192.947 8.117 246.273 5.269 252.643L.055 263.77l10.01-5.392c5.215-3.046 16.02-14.616 24.207-25.857l14.553-20.251 84.458-20.542c97.882-24.359 110.782-31.342 138.883-73.398 17.756-26.406 17.966-26.755 7.578-23.966a17842.94 17842.94 0 0 0-107.262 36.784c-53.171 18.431-97.819 31.527-98.761 29.059-3.603-6.919 10.196-24.295 23.955-30.287 13.34-5.293 14.177-6.691 32.247-45.744 12.081-27.44 17.462-43.696 16.267-50.594-2.137-9.366-13.154-29.773-17.783-32.555-2.848-1.712-13.569 19.416-67.17 133.137Zm-12.602 56.6c2.848 1.712 3.875 5.657 2.2 8.453-1.676 2.796-5.634 3.745-8.482 2.033-2.848-1.712-3.875-5.657-2.2-8.453 1.675-2.796 5.633-3.745 8.482-2.033Z" fill="#2F2F2F"/></svg>