<svg width="100" height="80" fill="none" xmlns="http://www.w3.org/2000/svg"><g clip-path="url(#a)" fill="#fff"><path d="M45.908.5c-17.393 3.2-27.162 22.467-19.34 38.2 3.63 7.334 8.944 11.767 16.897 14.167 3.862 1.167 9.472 1.233 13.466.167 3.432-.9 8.086-3.234 10.528-5.3 4.125-3.467 7.426-8.7 8.812-14.067.924-3.533.99-9.333.198-12.733C73.894 10.267 65.578 2.367 54.918.5c-3.4-.6-5.71-.6-9.01 0Zm10 4.834c6.303 1.633 11.518 5.9 14.422 11.833 1.75 3.6 2.376 6.767 2.178 11-.33 5.967-2.178 10.133-6.501 14.533-2.31 2.367-3.334 3.134-5.61 4.234-6.634 3.2-13.17 3.2-19.803 0-2.277-1.1-3.3-1.9-5.643-4.234-2.31-2.333-3.103-3.433-4.192-5.7-1.716-3.533-2.376-6.366-2.376-10.033C28.35 12.5 42.046 1.734 55.908 5.334Z"/><path d="M38.944 19.534v6.533l1.023-.2c.561-.1 1.551-.2 2.145-.2h1.09l.098-4.1.1-4.067 5.049-.1c4.455-.066 5.214 0 6.535.567 1.188.533 1.617.967 2.112 2.133.66 1.467.528 3-.297 4.034-.231.3.264.333 2.145.166 1.353-.1 2.541-.3 2.673-.4.1-.133.198-1.1.198-2.166 0-2.5-.957-4.6-2.904-6.334C56.5 13.267 55.148 13 46.5 13h-7.557v6.534Zm9.736 9.5c-5.248.5-10 .966-10.561 1.033l-.99.1.792.467c.429.233 1.683.5 2.805.6l2.014.166 4.95 4.967C53.466 42.1 54.489 42.7 58.581 42.9c2.574.134 2.607.134 1.98-.466a1447.17 1447.17 0 0 0-7.03-5.867c-3.498-2.9-6.27-5.433-6.138-5.6.33-.533 2.112-.3 3.102.4.924.7 1.056.7 4.522.333 2.409-.3 3.762-.6 4.191-.966.561-.534 1.518-2.134 1.518-2.567 0-.267-1.914-.133-12.046.867ZM44.225 30.5a.51.51 0 0 1-.495.5.51.51 0 0 1-.495-.5c0-.266.23-.5.495-.5a.51.51 0 0 1 .495.5ZM0 72.5v7.167h3.63v-4.333h1.453c1.485 0 1.485 0 2.574 2.066l1.089 2.1 1.947.1 1.914.1-1.188-2.233c-1.155-2.067-1.188-2.233-.627-2.667.33-.233.693-.466.825-.466.957-.034 1.122-6.134.231-7.6-.693-1.134-2.046-1.4-7.096-1.4H0V72.5Zm8.515-4.1c.23.233.396 1.1.396 1.933 0 .834-.165 1.7-.396 1.934-.231.233-1.32.4-2.64.4H3.63V68h2.245c1.32 0 2.409.167 2.64.4Zm14.587 4.1v7.167h11.221V77h-7.59v-3.333h5.94V71h-5.94v-3h7.591v-2.666H23.103V72.5Zm21.453-.033v7.2h4.752c5.28 0 6.6-.3 7.294-1.7.99-1.9.33-5-1.155-5.467-.66-.2-.66-.233.165-1.233 1.122-1.333 1.155-3.533.033-4.833l-.792-.934-5.149-.1-5.148-.1v7.167Zm8.053-3.933c.627.6.66.933.198 1.833-.297.533-.727.633-2.476.633h-2.145v-3h1.947c1.353 0 2.146.167 2.476.534Zm0 5.466c.66.234.858.567.858 1.267 0 1.433-.562 1.733-3.037 1.733h-2.244v-1.433c0-.8.1-1.567.231-1.667.33-.333 3.234-.266 4.192.1Zm15.049-1.5v7.167h11.22v-2.633l-3.86-.1-3.895-.1v-3l3.07-.1 3.036-.1v-2.6l-3.037-.1-3.069-.1v-2.667l3.894-.1 3.862-.1v-2.633H67.657V72.5Zm21.452 0v7.167H100v-2.633l-3.696-.1-3.73-.1-.099-5.767-.066-5.733h-3.3V72.5Z"/></g><defs><clipPath id="a"><path fill="#fff" d="M0 0h100v80H0z"/></clipPath></defs></svg>