<svg width="36" height="36" fill="none" xmlns="http://www.w3.org/2000/svg"><path fill-rule="evenodd" clip-rule="evenodd" d="M1.121 15.97a3 3 0 0 0 0 4.243l14.85 14.849a3 3 0 0 0 4.242 0l14.85-14.85a3 3 0 0 0 0-4.242L20.212 1.12a3 3 0 0 0-4.242 0L1.12 15.97ZM18 29.045c6.075 0 11-4.924 11-11 0-6.075-4.925-11-11-11s-11 4.925-11 11c0 6.076 4.925 11 11 11Z" fill="#fff"/><path fill-rule="evenodd" clip-rule="evenodd" d="M14 11.023a3 3 0 0 0-3 3v8a3 3 0 0 0 3 3h8a3 3 0 0 0 3-3v-8a3 3 0 0 0-3-3h-8Zm4 12a5 5 0 1 0 0-10 5 5 0 0 0 0 10Z" fill="#fff"/><path d="M16.707 18.753a1 1 0 0 1 0-1.414l.707-.707a1 1 0 0 1 1.414 0l.707.707a1 1 0 0 1 0 1.414l-.707.707a1 1 0 0 1-1.414 0l-.707-.707Z" fill="#fff"/></svg>