<svg width="63" height="62" fill="none" xmlns="http://www.w3.org/2000/svg"><path d="M29.483 4.52c9.145 0 19.556 5.374 22.268 17.31 3.023 13.33-5.14 24.593-12.529 31.697C36.51 56.162 33.056 59 29.543 59s-7.087-2.838-9.825-5.473C12.33 46.422 4.166 35.133 7.188 21.803 9.902 9.868 20.339 4.521 29.459 4.521h.025Z" fill="#000"/><path d="M28.34 27.001c-2.525.244-4.812.472-5.082.504l-.477.049.382.228c.206.113.81.244 1.35.292l.968.082 2.383 2.422c2.78 2.797 3.272 3.09 5.242 3.187 1.239.065 1.255.065.953-.228-.19-.162-1.7-1.447-3.383-2.861-1.684-1.415-3.018-2.65-2.955-2.732.159-.26 1.017-.146 1.493.195.445.342.509.342 2.176.163 1.16-.146 1.811-.293 2.017-.472.27-.26.731-1.04.731-1.252 0-.13-.921-.065-5.797.423Zm-2.144.716c0 .13-.11.244-.238.244a.247.247 0 0 1-.238-.244c0-.13.11-.244.238-.244.127 0 .238.114.238.244ZM23.82 22.36v3.12l.512-.096a7.89 7.89 0 0 1 1.073-.095h.545l.05-1.958.049-1.942 2.526-.048c2.228-.032 2.608 0 3.268.27.595.255.81.462 1.057 1.02.33.7.264 1.432-.149 1.926-.115.143.132.159 1.073.08.677-.048 1.271-.144 1.337-.192.05-.063.1-.525.1-1.034 0-1.194-.48-2.197-1.453-3.025-1.206-1.019-1.882-1.146-6.207-1.146h-3.78v3.12Z" fill="#fff"/><path d="M27.333 13.218c-8.503 1.548-13.28 10.87-9.455 18.481 1.775 3.548 4.372 5.693 8.261 6.854 1.888.565 4.631.597 6.583.081 1.679-.435 3.954-1.564 5.148-2.564 2.017-1.677 3.63-4.21 4.308-6.806.452-1.71.484-4.515.097-6.16-1.259-5.161-5.325-8.983-10.537-9.886-1.662-.29-2.791-.29-4.405 0Zm4.89 2.338a10.827 10.827 0 0 1 7.05 5.725c.856 1.742 1.162 3.274 1.066 5.322-.162 2.887-1.065 4.903-3.18 7.032-1.129 1.145-1.629 1.516-2.742 2.048-3.244 1.548-6.438 1.548-9.682 0-1.113-.532-1.613-.92-2.759-2.048-1.13-1.13-1.517-1.661-2.05-2.758-.838-1.71-1.16-3.08-1.16-4.854-.017-7 6.68-12.209 13.456-10.467Z" fill="#fff"/></svg>