<svg width="148" height="44" fill="none" xmlns="http://www.w3.org/2000/svg"><path fill="#fff" d="M0 0h148v44H0z"/><path d="M113.109 22.2v7.167H124v-2.633l-3.696-.1-3.729-.1-.099-5.767-.066-5.733h-3.301V22.2Zm-21.453 0v7.167h11.221v-2.633l-3.861-.1-3.894-.1v-3l3.069-.1 3.036-.1v-2.6l-3.036-.1-3.07-.1v-2.667l3.895-.1 3.861-.1v-2.633h-11.22V22.2Zm-23.101-.033v7.2h4.752c5.28 0 6.6-.3 7.294-1.7.99-1.9.33-5-1.155-5.466-.66-.2-.66-.234.165-1.234 1.122-1.333 1.155-3.533.033-4.833l-.792-.934-5.149-.1-5.148-.1v7.167Zm8.052-3.933c.628.6.66.933.198 1.833-.297.534-.726.634-2.475.634h-2.145v-3h1.947c1.353 0 2.145.166 2.475.533Zm0 5.466c.66.234.859.567.859 1.267 0 1.434-.561 1.734-3.037 1.734h-2.244v-1.434c0-.8.1-1.566.231-1.666.33-.334 3.234-.267 4.192.1Zm-29.505-1.5v7.167h11.22v-2.666h-7.59v-3.334h5.94v-2.666h-5.94v-3h7.591v-2.667H47.102V22.2ZM24 22.2v7.167h3.63v-4.333h1.453c1.485 0 1.485 0 2.574 2.066l1.089 2.1 1.947.1 1.914.1-1.188-2.233c-1.155-2.067-1.188-2.233-.627-2.667.33-.233.693-.466.825-.466.957-.034 1.122-6.134.231-7.6-.693-1.134-2.046-1.4-7.095-1.4H24V22.2Zm8.515-4.1c.23.234.396 1.1.396 1.934 0 .833-.165 1.7-.396 1.933-.231.233-1.32.4-2.64.4H27.63V17.7h2.245c1.32 0 2.409.167 2.64.4Z" fill="#000"/></svg>