<svg width="60" height="60" fill="none" xmlns="http://www.w3.org/2000/svg"><path d="M0 30C0 13.431 13.431 0 30 0c16.569 0 30 13.431 30 30 0 16.569-13.431 30-30 30C13.431 60 0 46.569 0 30Z" fill="#000"/><path d="M32.893 32.893C30.536 35.325 30.364 38.357 30.16 45c6.193 0 10.468-.021 12.675-2.164C44.979 40.629 45 36.15 45 30.16c-6.643.214-9.675.375-12.107 2.732ZM15 30.16c0 5.989.021 10.468 2.164 12.675C19.371 44.979 23.646 45 29.84 45c-.214-6.643-.375-9.675-2.732-12.107-2.432-2.357-5.464-2.529-12.107-2.732ZM29.84 15c-6.183 0-10.469.021-12.676 2.164C15.021 19.371 15 23.85 15 29.84c6.643-.214 9.675-.375 12.107-2.732 2.357-2.432 2.529-5.464 2.732-12.107Zm3.053 12.107C30.536 24.675 30.364 21.643 30.16 15c6.193 0 10.468.021 12.675 2.164C44.979 19.371 45 23.85 45 29.84c-6.643-.214-9.675-.375-12.107-2.732Z" fill="#fff"/><path d="M45 30.16v-.32c-6.643-.215-9.675-.376-12.107-2.733-2.357-2.432-2.529-5.464-2.732-12.107h-.322c-.214 6.643-.375 9.675-2.732 12.107-2.432 2.357-5.464 2.529-12.107 2.732v.322c6.643.214 9.675.375 12.107 2.732 2.357 2.432 2.529 5.464 2.732 12.107h.322c.214-6.643.375-9.675 2.732-12.107 2.432-2.357 5.464-2.529 12.107-2.732Z" fill="#000"/></svg>