<svg width="60" height="60" fill="none" xmlns="http://www.w3.org/2000/svg"><rect width="60" height="60" rx="30" fill="#000"/><path d="M31.474 40.5c-11.275 0-17.706-7.883-17.974-21h5.648c.185 9.628 4.349 13.706 7.647 14.547V19.5h5.318v8.303c3.257-.357 6.678-4.14 7.832-8.303h5.318a16.183 16.183 0 0 1-2.547 6.004 15.835 15.835 0 0 1-4.688 4.464 16.34 16.34 0 0 1 5.344 4.34A16.726 16.726 0 0 1 46.5 40.5h-5.854a10.411 10.411 0 0 0-3.156-5.066 10.09 10.09 0 0 0-5.377-2.438V40.5h-.64Z" fill="#fff"/></svg>