<svg width="60" height="60" fill="none" xmlns="http://www.w3.org/2000/svg"><rect width="60" height="60" rx="30" fill="#000"/><path fill-rule="evenodd" clip-rule="evenodd" d="M16.894 40.585a3.854 3.854 0 0 1-1.566-.903 3.73 3.73 0 0 1-.963-1.505c-1.1-2.946-1.427-15.247.694-17.675a4.114 4.114 0 0 1 2.773-1.353c5.688-.598 23.264-.518 25.283.199.567.18 1.086.482 1.517.886.43.403.763.896.97 1.442 1.203 3.046 1.244 14.112-.163 17.038a3.807 3.807 0 0 1-1.774 1.752c-2.12 1.035-23.957 1.015-26.771.12Zm9.032-5.772 10.195-5.175-10.195-5.215v10.39Z" fill="#fff"/></svg>