<svg width="247" height="247" viewBox="0 0 247 247" fill="none" xmlns="http://www.w3.org/2000/svg">
<path d="M231.399 79.1289L228.272 79.2623C227.79 79.2787 227.314 79.1496 226.906 78.8918C226.498 78.6339 226.176 78.2592 225.984 77.8165C225.792 77.3737 225.737 76.8833 225.827 76.4091C225.917 75.9348 226.148 75.4986 226.489 75.1572L233.02 68.6265L178.374 13.9802L171.843 20.5109C171.501 20.8523 171.064 21.0826 170.589 21.1717C170.114 21.2608 169.624 21.2046 169.181 21.0103C168.739 20.8161 168.365 20.4929 168.109 20.0829C167.854 19.673 167.728 19.1955 167.748 18.7127L167.871 15.5758C167.993 12.6994 167.515 9.82915 166.467 7.1476C165.419 4.46605 163.825 2.03191 161.785 0L0 161.775C2.03645 163.808 4.47148 165.398 7.152 166.444C9.83252 167.491 12.7006 167.972 15.5758 167.856L18.7177 167.738C19.1994 167.719 19.6757 167.845 20.0845 168.101C20.4933 168.356 20.8157 168.729 21.0097 169.17C21.2037 169.612 21.2604 170.101 21.1723 170.575C21.0842 171.049 20.8555 171.486 20.5158 171.828L13.9802 178.374L68.6265 233.02L75.167 226.474C75.5089 226.133 75.9459 225.903 76.4208 225.813C76.8956 225.724 77.3863 225.781 77.8287 225.975C78.2711 226.169 78.6446 226.492 78.9004 226.902C79.1562 227.312 79.2823 227.79 79.2623 228.272L79.1289 231.399C79.0119 234.279 79.4922 237.152 80.5396 239.837C81.5871 242.521 83.1789 244.96 85.215 247L247 85.2249C244.963 83.1841 242.525 81.5885 239.84 80.5391C237.154 79.4898 234.28 79.0096 231.399 79.1289ZM196.414 69.98C195.778 70.9312 194.917 71.7115 193.909 72.2524C192.9 72.7934 191.774 73.0784 190.63 73.0824C189.719 73.0831 188.818 72.9041 187.977 72.5557C187.136 72.2073 186.372 71.6963 185.729 71.052L183.64 68.9624L166.107 86.4945L167.92 88.3074C168.611 88.9778 169.16 89.7799 169.534 90.6662C169.909 91.5525 170.102 92.505 170.102 93.4673C170.102 94.4295 169.909 95.382 169.534 96.2683C169.16 97.1546 168.611 97.9567 167.92 98.6271C166.603 99.814 164.88 100.45 163.108 100.403C161.336 100.356 159.649 99.63 158.396 98.3752L156.307 96.2855L138.439 114.154C140.553 117.538 141.458 121.54 141.006 125.505C140.554 129.471 138.771 133.166 135.949 135.988C133.126 138.81 129.431 140.592 125.465 141.043C121.5 141.494 117.498 140.589 114.114 138.473L96.2707 156.316L98.0837 158.124C98.777 158.795 99.3284 159.598 99.7049 160.487C100.081 161.375 100.276 162.33 100.276 163.294C100.276 164.259 100.081 165.214 99.7049 166.102C99.3284 166.99 98.777 167.793 98.0837 168.464C96.7652 169.646 95.0434 170.277 93.2733 170.228C91.5032 170.178 89.8195 169.451 88.5693 168.197L86.4796 166.107L68.9377 183.649L70.8445 185.556C72.016 186.691 72.7622 188.193 72.9582 189.812C73.1543 191.43 72.7882 193.067 71.9215 194.448C71.284 195.399 70.4234 196.178 69.415 196.719C68.4066 197.26 67.281 197.545 66.1367 197.551C65.2265 197.551 64.325 197.372 63.4841 197.024C62.6432 196.676 61.8793 196.165 61.2362 195.52L56.3456 190.63L51.6378 185.922C50.4664 184.788 49.7202 183.285 49.5242 181.667C49.3281 180.048 49.6941 178.411 50.5609 177.03C51.1264 176.17 51.8765 175.448 52.7566 174.915C53.6367 174.382 54.6246 174.052 55.6483 173.95C56.672 173.847 57.7057 173.974 58.6741 174.321C59.6425 174.669 60.5212 175.228 61.2461 175.958L63.3357 178.047L80.8678 160.515L79.0548 158.702C78.3632 158.03 77.8134 157.226 77.4379 156.338C77.0625 155.449 76.8691 154.495 76.8691 153.53C76.8691 152.566 77.0625 151.611 77.4379 150.723C77.8134 149.834 78.3632 149.03 79.0548 148.358C80.3295 147.227 81.9747 146.603 83.6787 146.604C84.5894 146.601 85.4917 146.778 86.333 147.127C87.1744 147.475 87.9379 147.988 88.5791 148.635L90.6688 150.724L108.537 132.856C106.408 129.47 105.492 125.46 105.94 121.484C106.389 117.509 108.174 113.804 111.004 110.976C113.834 108.149 117.541 106.366 121.516 105.921C125.492 105.476 129.501 106.395 132.886 108.527L150.729 90.6836L148.916 88.8706C148.219 88.1983 147.665 87.3926 147.287 86.5014C146.908 85.6102 146.713 84.6519 146.713 83.6836C146.713 82.7154 146.908 81.757 147.287 80.8658C147.665 79.9746 148.219 79.1689 148.916 78.4966C150.194 77.3715 151.838 76.7499 153.54 76.7478C154.449 76.7497 155.349 76.9309 156.189 77.281C157.028 77.6311 157.79 78.1432 158.431 78.7881L160.52 80.8777L178.062 63.3357L176.155 61.4289C174.984 60.2947 174.238 58.7924 174.042 57.1737C173.846 55.5549 174.212 53.918 175.079 52.5369C175.644 51.6774 176.394 50.9549 177.274 50.422C178.154 49.8891 179.142 49.5593 180.166 49.4566C181.19 49.3539 182.223 49.4809 183.192 49.8283C184.16 50.1758 185.039 50.7349 185.764 51.4649L190.654 56.3555L195.362 61.0633C196.536 62.2022 197.281 63.7107 197.473 65.3347C197.664 66.9588 197.291 68.5993 196.414 69.98Z" fill="#171717"/>
<g opacity="0.13" clip-path="url(#clip0_1106_3070)">
<path d="M188.676 86.0915C184.502 92.179 187.381 100.821 194.392 103.218C197.656 104.339 200.549 104.097 203.613 102.469C205.101 101.678 206.776 100.043 207.635 98.5462C208.378 97.2646 209.053 95.1942 209.156 93.8559C209.336 91.6024 208.745 89.0642 207.55 87.0507C206.766 85.7217 205.051 83.9682 203.801 83.1853C199.852 80.7555 195.037 80.847 191.334 83.4336C190.152 84.257 189.471 84.9385 188.676 86.0915ZM193.071 84.5866C195.419 83.2154 198.233 82.9528 200.864 83.87C202.456 84.4303 203.588 85.1921 204.795 86.5162C206.482 88.3975 207.182 90.1885 207.223 92.7794C207.249 94.1685 207.176 94.6995 206.833 95.7002C205.833 98.6138 203.905 100.542 200.992 101.542C199.991 101.885 199.45 101.947 198.061 101.941C196.682 101.925 196.12 101.829 195.121 101.473C193.558 100.923 192.516 100.271 191.42 99.1743C187.085 94.8587 187.906 87.5993 193.071 84.5866Z" fill="white"/>
<path d="M192.313 93.8362L194.267 95.7896L194.509 95.4279C194.644 95.2325 194.906 94.9106 195.082 94.7353L195.403 94.414L194.206 93.159L193.02 91.9139L194.479 90.3945C195.774 89.0602 196.018 88.8562 196.576 88.6362C197.086 88.4451 197.343 88.4481 197.837 88.6509C198.471 88.8947 198.89 89.3921 198.956 89.9444C198.977 90.1023 199.133 89.9662 199.638 89.3614C200.008 88.9324 200.298 88.5221 200.307 88.4532C200.297 88.3842 200.037 88.0659 199.718 87.747C198.97 86.9996 198.06 86.654 196.968 86.7102C195.619 86.7831 195.14 87.1026 192.589 89.6533L190.36 91.8828L192.313 93.8362Z" fill="white"/>
<path d="M198.025 93.8045C196.627 95.502 195.364 97.0435 195.219 97.2289L194.957 97.5509L195.33 97.4568C195.526 97.4 195.976 97.1097 196.337 96.8086L196.981 96.2646L199.926 96.2891C203.344 96.2995 203.825 96.1771 205.092 95.0296C205.891 94.3101 205.901 94.3004 205.537 94.306C205.32 94.3231 203.608 94.4607 201.709 94.6257C199.81 94.7906 198.235 94.851 198.224 94.7622C198.162 94.5054 198.757 94.0495 199.258 93.9667C199.74 93.9034 199.779 93.8644 200.692 92.7325C201.313 91.9321 201.622 91.4432 201.639 91.2071C201.645 90.8821 201.449 90.1214 201.32 89.9918C201.24 89.9121 200.715 90.5166 198.025 93.8045ZM197.15 95.5574C197.229 95.6371 197.231 95.775 197.153 95.8529C197.075 95.9308 196.937 95.9292 196.857 95.8494C196.778 95.7697 196.776 95.6318 196.854 95.5539C196.932 95.476 197.07 95.4776 197.15 95.5574Z" fill="white"/>
<path d="M196.661 121.161L198.804 123.304L199.339 122.768L199.874 122.233L199.227 121.585L198.579 120.937L199.007 120.509C199.445 120.07 199.445 120.07 200.385 120.367L201.334 120.674L201.938 120.129L202.533 119.594L201.514 119.277C200.556 119 200.496 118.96 200.532 118.665C200.56 118.498 200.597 118.321 200.636 118.282C200.908 117.99 199.133 116.117 198.432 115.942C197.889 115.807 197.41 116.127 195.92 117.616L194.518 119.018L196.661 121.161ZM197.947 117.423C198.085 117.425 198.393 117.635 198.642 117.884C198.891 118.133 199.101 118.441 199.103 118.579C199.104 118.717 198.833 119.088 198.444 119.478L197.782 120.14L197.084 119.442L196.386 118.744L197.048 118.082C197.438 117.693 197.809 117.422 197.947 117.423Z" fill="white"/>
<path d="M203.475 114.346L205.618 116.488L207.273 114.833L208.928 113.178L208.53 112.779L208.131 112.381L207.011 113.5L205.892 114.62L205.394 114.122L204.895 113.623L205.771 112.747L206.648 111.871L206.249 111.472L205.85 111.074L204.974 111.95L204.098 112.826L203.649 112.378L203.201 111.929L204.321 110.81L205.44 109.69L205.042 109.291L204.643 108.893L202.988 110.548L201.333 112.203L203.475 114.346Z" fill="white"/>
<path d="M209.795 108.007L211.947 110.16L213.349 108.758C214.907 107.2 215.207 106.721 214.993 106.098C214.717 105.238 213.595 104.506 213.017 104.805C212.763 104.94 212.753 104.93 212.697 104.387C212.63 103.658 211.982 102.99 211.262 102.932L210.749 102.887L209.201 104.376L207.652 105.865L209.795 108.007ZM210.994 104.456C211.359 104.45 211.468 104.54 211.601 104.946C211.673 105.193 211.576 105.349 211.06 105.865L210.427 106.498L209.979 106.05L209.53 105.601L210.104 105.027C210.504 104.628 210.787 104.444 210.994 104.456ZM212.629 106.09C212.893 105.965 213.051 106.007 213.26 106.216C213.689 106.645 213.613 106.9 212.883 107.63L212.221 108.292L211.792 107.863C211.553 107.624 211.353 107.366 211.362 107.297C211.36 107.1 212.237 106.263 212.629 106.09Z" fill="white"/>
<path d="M216.619 101.202L218.762 103.345L220.417 101.69L222.072 100.035L221.673 99.6359L221.285 99.2472L220.116 100.356L218.937 101.475L218.488 101.027L218.04 100.578L218.915 99.6431L219.781 98.7175L219.393 98.3288L219.004 97.9401L218.078 98.8059L217.143 99.6815L216.744 99.2828L216.346 98.8842L217.465 97.7054L218.574 96.5365L218.185 96.1478L217.786 95.7491L216.131 97.4042L214.476 99.0593L216.619 101.202Z" fill="white"/>
<path d="M222.948 94.8739L225.091 97.0166L226.697 95.4102L228.304 93.8038L227.905 93.4051L227.516 93.0165L226.396 94.077L225.266 95.1472L223.513 93.4523L221.779 91.7576L221.292 92.2444L220.805 92.7312L222.948 94.8739Z" fill="white"/>
</g>
<defs>
<clipPath id="clip0_1106_3070">
<rect width="41.7187" height="33.826" fill="white" transform="translate(175 99.4995) rotate(-45)"/>
</clipPath>
</defs>
</svg>
