<svg width="594" height="720" viewBox="0 0 594 720" fill="none" xmlns="http://www.w3.org/2000/svg">
<path d="M277.481 385.156C151.425 397.166 37.2617 408.377 23.7841 409.978L0 412.38L19.0273 423.591C29.3337 429.196 59.4602 435.602 86.4155 438.004L134.776 442.007L253.697 561.316C392.437 699.042 417.014 713.455 515.322 718.259C577.16 721.462 577.953 721.462 562.89 707.049C553.376 699.042 478.06 635.784 394.023 566.121C309.986 496.457 243.39 435.602 246.562 431.598C254.49 418.786 297.301 424.391 321.085 441.207C343.283 458.022 346.455 458.022 429.699 449.214C487.573 442.007 520.078 434.801 530.385 425.993C543.862 413.181 566.854 374.746 566.854 364.337C566.854 357.931 520.871 361.134 277.481 385.156ZM170.453 420.388C170.453 426.793 164.903 432.399 158.56 432.399C152.218 432.399 146.668 426.793 146.668 420.388C146.668 413.982 152.218 408.377 158.56 408.377C164.903 408.377 170.453 413.982 170.453 420.388Z" fill="#171717"/>
<path d="M43.5986 156.944V313.887L68.1755 309.082C81.6531 306.68 105.437 304.278 119.708 304.278H145.87L148.249 205.788L150.627 108.099L271.926 105.697C378.954 104.095 397.189 105.697 428.901 119.309C457.441 132.121 467.748 142.53 479.64 170.556C495.496 205.788 492.325 242.622 472.505 267.444C466.955 274.651 478.847 275.452 524.037 271.448C556.542 269.046 585.083 264.241 588.254 261.839C590.632 258.636 593.011 235.415 593.011 209.792C593.011 149.737 570.019 99.2909 523.244 57.653C465.37 6.4062 432.865 0.000366211 225.15 0.000366211H43.5986V156.944Z" fill="#171717"/>
</svg>
