<svg width="563" height="358" viewBox="0 0 563 358" fill="none" xmlns="http://www.w3.org/2000/svg">
<path d="M273.821 24.5067C149.551 36.4577 37.0041 47.6119 23.7169 49.2054L0.269584 51.5956L19.0087 62.7498C29.1597 68.3269 58.8462 74.7008 85.4125 77.091L133.076 81.0746L250.125 199.788C386.685 336.825 410.889 351.167 507.784 355.947C568.734 359.134 569.515 359.134 554.688 344.793C545.322 336.825 471.173 273.884 388.437 204.568C305.702 135.252 240.146 74.7007 243.277 70.7171C251.11 57.9694 293.301 63.5465 316.721 80.2779C338.578 97.0092 341.704 97.0092 423.77 88.2452C480.827 81.0746 512.878 73.904 523.049 65.14C536.353 52.3923 559.07 14.1492 559.085 3.79165C559.094 -2.5822 513.764 0.604743 273.821 24.5067ZM168.273 59.5629C168.264 65.9367 162.785 71.5138 156.534 71.5138C150.282 71.5138 144.82 65.9367 144.829 59.5629C144.838 53.189 150.316 47.6119 156.568 47.6119C162.82 47.6119 168.282 53.189 168.273 59.5629Z" fill="white"/>
</svg>
