<svg width="400" height="307" viewBox="0 0 400 307" fill="none" xmlns="http://www.w3.org/2000/svg">
<path d="M105.673 154.908C57.8645 223.517 14.7347 285.797 9.78398 293.269L0.832445 306.273L14.6556 301.549C21.9062 298.788 38.0382 286.403 50.7831 273.882L73.4935 251.284L184.871 243.056C314.066 232.822 331.887 226.691 376.361 179.314C404.429 149.59 404.768 149.191 391.015 150.536C382.885 151.859 318.588 162.391 247.312 174.541C176.037 186.69 116.688 193.874 116.013 190.547C112.903 181.018 134.053 161.905 152.754 157.212C170.776 153.317 172.133 151.722 203.26 106.035C224.351 73.8035 234.595 54.3347 234.533 45.3407C233.797 33.0199 224.13 4.83192 218.849 0.330171C215.599 -2.44014 197.562 22.0773 105.673 154.908ZM77.7809 223.987C81.0307 226.757 81.5012 231.973 78.7891 235.164C76.0771 238.354 70.8605 238.722 67.6107 235.952C64.361 233.182 63.8905 227.966 66.6026 224.775C69.3146 221.584 74.5312 221.217 77.7809 223.987Z" fill="white"/>
</svg>
