<svg width="60" height="60" viewBox="0 0 60 60" fill="none" xmlns="http://www.w3.org/2000/svg">
<path d="M0 30C0 13.4315 13.4315 0 30 0C46.5685 0 60 13.4315 60 30C60 46.5685 46.5685 60 30 60C13.4315 60 0 46.5685 0 30Z" fill="black"/>
<path d="M32.8929 32.8929C30.5357 35.325 30.3643 38.3571 30.1607 45C36.3536 45 40.6286 44.9786 42.8357 42.8357C44.9786 40.6286 45 36.15 45 30.1607C38.3571 30.375 35.325 30.5357 32.8929 32.8929ZM15 30.1607C15 36.15 15.0214 40.6286 17.1643 42.8357C19.3714 44.9786 23.6464 45 29.8393 45C29.625 38.3571 29.4643 35.325 27.1071 32.8929C24.675 30.5357 21.6429 30.3643 15 30.1607ZM29.8393 15C23.6571 15 19.3714 15.0214 17.1643 17.1643C15.0214 19.3714 15 23.85 15 29.8393C21.6429 29.625 24.675 29.4643 27.1071 27.1071C29.4643 24.675 29.6357 21.6429 29.8393 15ZM32.8929 27.1071C30.5357 24.675 30.3643 21.6429 30.1607 15C36.3536 15 40.6286 15.0214 42.8357 17.1643C44.9786 19.3714 45 23.85 45 29.8393C38.3571 29.625 35.325 29.4643 32.8929 27.1071Z" fill="white"/>
<path d="M45 30.1607V29.8393C38.3571 29.625 35.325 29.4643 32.8929 27.1071C30.5357 24.675 30.3643 21.6429 30.1607 15H29.8393C29.625 21.6429 29.4643 24.675 27.1071 27.1071C24.675 29.4643 21.6429 29.6357 15 29.8393V30.1607C21.6429 30.375 24.675 30.5357 27.1071 32.8929C29.4643 35.325 29.6357 38.3571 29.8393 45H30.1607C30.375 38.3571 30.5357 35.325 32.8929 32.8929C35.325 30.5357 38.3571 30.3643 45 30.1607Z" fill="black"/>
</svg>
