<svg width="60" height="60" viewBox="0 0 60 60" fill="none" xmlns="http://www.w3.org/2000/svg">
<rect width="60" height="60" rx="30" fill="black"/>
<path fill-rule="evenodd" clip-rule="evenodd" d="M15 23C15 18.5817 18.5817 15 23 15H37C41.4183 15 45 18.5817 45 23V37C45 41.4183 41.4183 45 37 45H23C18.5817 45 15 41.4183 15 37V23ZM38.0001 30.0002C38.0001 34.4185 34.4184 38.0002 30.0001 38.0002C25.5818 38.0002 22.0001 34.4185 22.0001 30.0002C22.0001 25.5819 25.5818 22.0002 30.0001 22.0002C34.4184 22.0002 38.0001 25.5819 38.0001 30.0002ZM38.0001 24.0002C39.1047 24.0002 40.0001 23.1047 40.0001 22.0002C40.0001 20.8956 39.1047 20.0002 38.0001 20.0002C36.8955 20.0002 36.0001 20.8956 36.0001 22.0002C36.0001 23.1047 36.8955 24.0002 38.0001 24.0002Z" fill="white"/>
</svg>
